<?xml version="1.0" encoding="UTF-8"?>
<svg width="16" height="16" xmlns="http://www.w3.org/2000/svg" xmlns:xlink="http://www.w3.org/1999/xlink">
 <defs>
  <filter id="a" x="0%" y="0%" width="100%" height="100%">
   <feColorMatrix in="SourceGraphic" values="0 0 0 0 1 0 0 0 0 1 0 0 0 0 1 0 0 0 1 0"/>
  </filter>
  <mask id="d">
   <g filter="url(#a)">
    <path d="M0 0h16v16H0z" fill-opacity=".542"/>
   </g>
  </mask>
  <clipPath id="b">
   <path d="M0 0h192v152H0z"/>
  </clipPath>
  <g id="c" clip-path="url(#b)" fill="#c0bfbc">
   <path d="m28 120c0 2.21-1.79 4-4 4s-4-1.79-4-4 1.79-4 4-4 4 1.79 4 4zm16 0c0 2.21-1.79 4-4 4s-4-1.79-4-4 1.79-4 4-4 4 1.79 4 4zm16 0c0 2.21-1.79 4-4 4s-4-1.79-4-4 1.79-4 4-4 4 1.79 4 4zm-32-23c0 2.21-1.79 4-4 4s-4-1.79-4-4 1.79-4 4-4 4 1.79 4 4zm16 0c0 2.21-1.79 4-4 4s-4-1.79-4-4 1.79-4 4-4 4 1.79 4 4zm16 0c0 2.21-1.79 4-4 4s-4-1.79-4-4 1.79-4 4-4 4 1.79 4 4zm16 0c0 2.21-1.79 4-4 4s-4-1.79-4-4 1.79-4 4-4 4 1.79 4 4zm16 0c0 2.21-1.79 4-4 4s-4-1.79-4-4 1.79-4 4-4 4 1.79 4 4zm16 0c0 2.21-1.79 4-4 4s-4-1.79-4-4 1.79-4 4-4 4 1.79 4 4zm-64-23c0 2.21-1.79 4-4 4s-4-1.79-4-4 1.79-4 4-4 4 1.79 4 4zm16 0c0 2.21-1.79 4-4 4s-4-1.79-4-4 1.79-4 4-4 4 1.79 4 4zm16 0c0 2.21-1.79 4-4 4s-4-1.79-4-4 1.79-4 4-4 4 1.79 4 4zm16 0c0 2.21-1.79 4-4 4s-4-1.79-4-4 1.79-4 4-4 4 1.79 4 4zm16 0c0 2.21-1.79 4-4 4s-4-1.79-4-4 1.79-4 4-4 4 1.79 4 4z"/>
  </g>
 </defs>
 <use transform="translate(-160 -24)" mask="url(#d)" xlink:href="#c"/>
 <path d="M4 10h2v2H4zm6 0h2v2h-2zm-3 0h2v2H7zm3-3h2v2h-2zM7 7h2v2H7zM3.715 1A2.73 2.73 0 0 0 1 3.715v8.57A2.73 2.73 0 0 0 3.715 15h8.57A2.73 2.73 0 0 0 15 12.285v-8.57A2.73 2.73 0 0 0 12.285 1zM3 6h10v6.285c0 .414-.3.715-.715.715h-8.57A.692.692 0 0 1 3 12.285zm0 0" fill="#241f31"/>
</svg>
